<svg xmlns="http://www.w3.org/2000/svg" viewBox="0 0 960 480">
<path fill="#111" fill-rule="evenodd" d="m85.03 107.17c-2.41-4.18-.98-9.52 3.2-11.94 4.18-2.41 9.52-.98 11.94 3.2l18.55 32.14c.24.04.48.1.72.16l42.7 11.44c4.66 1.25 7.43 6.04 6.18 10.7-1.25 4.66-6.04 7.43-10.7 6.18l-38.55-10.33-10.32 38.52c-1.25 4.66-6.04 7.43-10.7 6.18-4.66-1.25-7.43-6.04-6.18-10.7l11.44-42.7c.07-.26.15-.52.25-.77l-18.52-32.08Zm557.77 70.68v128.51h22.92v-45.69c0-8.09 2.09-14.4 6.27-18.92 4.3-4.52 9.67-6.78 16.12-6.78s11.34 2.02 14.33 6.07c3.1 4.05 4.66 9.88 4.66 17.49v47.83h22.74v-49.98c0-13.33-3.04-23.44-9.13-30.34-5.97-6.9-14.44-10.35-25.43-10.35-6.57 0-12.41 1.43-17.55 4.28-5.01 2.74-9.01 6.54-12 11.42v-53.55h-22.92Zm-290.9 122.62c8.83 5.35 19.16 8.03 30.98 8.03 9.43 0 17.19-1.61 23.28-4.82 6.09-3.21 11.16-7.79 15.22-13.74l1.79 16.42h21.13v-68.72h-54.79v17.14h31.69c-1.19 10-4.72 18.09-10.56 24.27-5.73 6.07-14.26 9.1-25.6 9.1s-20.77-3.75-27.58-11.24c-6.68-7.62-10.03-18.32-10.03-32.13s3.4-24.63 10.21-32.49c6.8-7.97 16.47-11.96 29.01-11.96 7.88 0 14.32 1.67 19.34 5 5.01 3.21 8.48 7.73 10.39 13.56h25.61c-2.87-12.37-9.13-22.07-18.8-29.09-9.67-7.02-21.84-10.53-36.53-10.53-12.89 0-24.05 2.8-33.48 8.39-9.31 5.47-16.53 13.15-21.67 23.02-5.01 9.76-7.52 21.06-7.52 33.91s2.45 23.92 7.34 33.56c4.89 9.52 11.76 16.96 20.59 22.31Zm125.96 4.46c4.89 2.38 11.16 3.57 18.8 3.57s13.43-1.55 18.08-4.64c4.78-3.09 8.48-7.02 11.1-11.78l2.15 14.28h19.52v-54.44c0-11.54-3.64-20.47-10.92-26.77-7.28-6.31-17.25-9.46-29.9-9.46-7.4 0-14.09 1.31-20.05 3.93-5.97 2.5-10.86 6.13-14.68 10.89-3.7 4.76-5.85 10.35-6.45 16.78h22.38c.84-4.28 2.98-7.5 6.45-9.64 3.46-2.26 7.52-3.39 12.18-3.39 5.13 0 9.43 1.43 12.89 4.28 3.46 2.86 5.19 7.32 5.19 13.39v2.14h-22.56c-12.89 0-22.56 2.56-29.01 7.68-6.45 5.12-9.67 11.78-9.67 19.99 0 4.88 1.19 9.34 3.58 13.39 2.39 4.05 6.03 7.32 10.92 9.82Zm39.21-20.71c-3.58 4.28-8.65 6.43-15.22 6.43-4.3 0-7.76-.95-10.39-2.86-2.63-1.9-3.94-4.58-3.94-8.03 0-3.21 1.31-5.89 3.94-8.03 2.63-2.26 6.98-3.39 13.07-3.39h19.52c-.95 6.31-3.28 11.6-6.98 15.89Zm89.93 22.13c-9.31 0-16.77-2.26-22.38-6.78-5.61-4.52-8.42-12.55-8.42-24.1v-38.55h-15.22v-19.1h15.22l2.69-23.74h20.23v23.74h23.99v19.1h-23.99v38.73c0 4.28.9 7.26 2.69 8.92 1.91 1.55 5.13 2.32 9.67 2.32h11.1v19.46h-15.58Zm185.71 2.14c-8.95 0-16.89-1.9-23.81-5.71s-12.36-9.16-16.29-16.06c-3.94-6.9-5.91-14.87-5.91-23.92s1.91-17.31 5.73-24.45c3.94-7.14 9.31-12.67 16.12-16.6 6.92-4.05 15.04-6.07 24.35-6.07 8.71 0 16.41 1.9 23.1 5.71 6.69 3.81 11.88 9.04 15.58 15.71 3.82 6.55 5.73 13.86 5.73 21.95 0 1.31-.06 2.68-.18 4.11 0 1.43-.06 2.92-.18 4.46h-67.51c.48 6.9 2.87 12.32 7.16 16.24 4.42 3.93 9.73 5.89 15.94 5.89 4.65 0 8.53-1.01 11.64-3.03 3.22-2.14 5.61-4.88 7.16-8.21h23.28c-1.67 5.59-4.48 10.71-8.41 15.35-3.82 4.52-8.6 8.09-14.32 10.71-5.61 2.62-12 3.93-19.16 3.93Zm.18-74.25c-5.61 0-10.57 1.61-14.86 4.82-4.3 3.09-7.04 7.85-8.24 14.28h44.23c-.36-5.83-2.51-10.47-6.44-13.92-3.94-3.45-8.83-5.18-14.68-5.18Zm62.23-16.42v88.53h22.92v-40.34c0-6.78 1.08-12.08 3.23-15.89 2.27-3.81 5.37-6.49 9.31-8.03 3.94-1.55 8.41-2.32 13.43-2.32h6.44v-24.1c-7.52 0-14.09 1.73-19.7 5.18-5.49 3.33-9.85 7.85-13.07 13.57l-2.15-16.6h-20.41Zm-679.6 28.78c16.84-9.72 22.61-31.26 12.88-48.1-9.72-16.84-31.26-22.61-48.09-12.89-16.84 9.72-22.61 31.26-12.88 48.1 9.72 16.84 31.26 22.61 48.1 12.89Zm-9.11-15.43c8.33-4.81 11.19-15.46 6.37-23.8-4.81-8.33-15.46-11.19-23.8-6.38-8.33 4.81-11.19 15.46-6.37 23.8 4.81 8.33 15.46 11.19 23.79 6.38Zm-51.18 9.74c9.72 16.84 3.95 38.38-12.88 48.1-16.84 9.72-38.37 3.95-48.1-12.89-9.72-16.84-3.95-38.37 12.88-48.1 16.84-9.72 38.37-3.95 48.1 12.89Zm-15.75 8.57c4.81 8.33 1.96 18.99-6.37 23.8-8.33 4.81-18.98 1.95-23.79-6.38-4.81-8.33-1.96-18.99 6.37-23.8 8.33-4.81 18.98-1.95 23.79 6.38Zm82.12 86.81c16.84-9.72 22.61-31.26 12.88-48.1-9.72-16.84-31.26-22.61-48.09-12.89s-22.61 31.26-12.88 48.1c9.72 16.84 31.26 22.61 48.1 12.89Zm-9.38-15.83c8.33-4.81 11.19-15.46 6.37-23.8-4.81-8.33-15.46-11.19-23.8-6.38-8.33 4.81-11.19 15.46-6.37 23.8 4.81 8.33 15.46 11.19 23.79 6.38Zm95.68 14.73c9.72 16.84 3.95 38.38-12.88 48.1-16.84 9.72-38.37 3.95-48.09-12.89-9.72-16.84-3.95-38.37 12.88-48.1 16.84-9.72 38.37-3.95 48.1 12.89Zm-15.63 8.76c4.81 8.33 1.96 18.99-6.37 23.8-8.33 4.81-18.98 1.95-23.79-6.38-4.81-8.33-1.96-18.99 6.37-23.8 8.33-4.81 18.98-1.95 23.8 6.38Zm2.77-50.05c16.84-9.72 22.61-31.26 12.88-48.1-9.72-16.84-31.26-22.61-48.09-12.89s-22.61 31.26-12.88 48.1c9.72 16.84 31.26 22.61 48.1 12.89Zm-8.78-15.53c8.33-4.81 11.19-15.46 6.37-23.8-4.81-8.33-15.46-11.19-23.8-6.38-8.33 4.81-11.19 15.46-6.37 23.8 4.81 8.33 15.46 11.19 23.8 6.38Zm15.59-122.25c9.72 16.84 3.95 38.38-12.88 48.1-16.84 9.72-38.37 3.95-48.1-12.89-9.72-16.84-3.95-38.37 12.88-48.1 16.84-9.72 38.37-3.95 48.09 12.89Zm-15.75 8.44c4.81 8.33 1.96 18.99-6.37 23.8-8.33 4.81-18.98 1.95-23.79-6.38-4.81-8.33-1.96-18.99 6.37-23.8 8.33-4.81 18.98-1.95 23.8 6.38Z"/>
</svg>
