<svg xmlns="http://www.w3.org/2000/svg" viewBox="0 0 161 168">
  <defs>
    <style>
    .cls-1 {
      fill: #388e3c;
    }
    .cls-2 {
      fill: #2a5b67;
    }
    .cls-3 {
      fill: #ff9a0d;
    }
    .cls-4 {
      fill: #f7672f;
    }
    .cls-5 {
      fill: #a9d9cb;
    }
    .cls-6 {
      fill: #e3d7ed;
    }
    .cls-7 {
      fill: #fff;
    }
    </style>
  </defs>
  <path
    class="cls-1"
    d="M108.56,13.1l43.17,51.37c20.07,23.88,3.09,60.34-28.12,60.34H37.29c-31.21,0-48.19-36.46-28.12-60.34L52.34,13.1A36.7,36.7,0,0,1,108.56,13.1Z"
  />
  <path
    class="cls-2"
    d="M126.89,34.9,108.56,13.1a36.7,36.7,0,0,0-56.22,0L34,34.9Z"
  />
  <path
    class="cls-2"
    d="M8.58,111a36,36,0,0,0,28.71,13.78h86.32A36,36,0,0,0,152.32,111Z"
  />
  <path
    class="cls-3"
    d="M20.64,145.86C15.72,154.83,6.15,159,3,157.3s-4.79-12.08.12-21.05,11-10.81,15.88-8.16S25.55,136.89,20.64,145.86Z"
  />
  <path
    class="cls-3"
    d="M140.26,145.86c4.92,9,14.49,13.18,17.67,11.44s4.79-12.08-.12-21.05-11-10.81-15.88-8.16S135.35,136.89,140.26,145.86Z"
  />
  <path
    class="cls-3"
    d="M90.45,148.7c0,10.23-6.38,18.52-10,18.52s-10-8.29-10-18.52,4.48-14.78,10-14.78S90.45,138.48,90.45,148.7Z"
  />
  <path
    class="cls-4"
    d="M19,128.09c-4.7-2.57-10.58-.89-15.41,7.37q9.4,2.53,19.5,4.45C24.53,134.15,22.65,130.11,19,128.09Z"
  />
  <path
    class="cls-4"
    d="M141.93,128.09c-3.68,2-5.56,6.06-4.09,11.82q10.08-1.91,19.5-4.45C152.51,127.2,146.63,125.52,141.93,128.09Z"
  />
  <path
    class="cls-4"
    d="M80.45,133.92c-4.81,0-8.82,3.46-9.78,11.09,3.24.09,6.5.15,9.78.15s6.54-.06,9.78-.15C89.27,137.38,85.26,133.92,80.45,133.92Z"
  />
  <path
    class="cls-5"
    d="M97.63,90.58a24.29,24.29,0,0,0,0-34.36,113.12,113.12,0,0,1-15.31,19,113.25,113.25,0,0,1-19,15.32A24.3,24.3,0,0,0,97.63,90.58Z"
  />
  <path
    class="cls-6"
    d="M97.63,56.22h0A24.3,24.3,0,0,0,63.27,90.58h0a113.25,113.25,0,0,0,19-15.32A113.12,113.12,0,0,0,97.63,56.22Z"
  />
  <path
    class="cls-7"
    d="M97.63,56.22h0A24.3,24.3,0,0,0,63.27,90.58h0a113.25,113.25,0,0,0,19-15.32A113.12,113.12,0,0,0,97.63,56.22Z"
  />
</svg>
