<svg
  version="1.2"
  xmlns="http://www.w3.org/2000/svg"
  viewBox="0 0 1550 1381"
  width="1550"
  height="1381"
>
  <style>
  .a {
    fill: #e2750f;
  }
  </style>
  <path
    fill-rule="evenodd"
    class="a"
    d="m1051.3 868.6q12.7-3.6 23.9-10.2 11.2-6.6 20.4-15.8 9.2-9.1 15.8-20.3l216.2-353.6c56.5 161.8 50.4 338.8-16.3 496-16.7 39.2-36.6 76.4-60 111.5-23.4 35.1-50.4 68.1-79.9 98.7-29.5 30-61.6 57.5-96.2 81.9-34.6 24.4-71.2 45.3-109.9 63.1-155.2 70.2-331.2 80.4-493.6 26.9q-60-19.8-116-50.3c-37.1-20.4-72.2-43.8-104.8-70.8-32.6-26.9-62.6-56.4-90.1-89-26.9-32.6-50.9-67.2-71.7-104.3-20.9-36.6-38.2-75.3-51.9-115.5-13.2-40.2-23.4-81.4-29.5-123.1q-9.2-63.1-6.1-126.7c1.5-42.2 7.1-84.5 16.8-125.7 9.1-41.2 22.9-81.4 39.6-120.1 16.8-39.1 37.2-76.3 61.1-110.9 23.4-35.1 50.4-68.1 80.4-98.2 29.5-30 62.1-56.9 97.2-80.9 69.7-48.3 147.6-82.9 230-102.7 81.9-19.4 167.4-23.4 251.4-11.7 83.9 11.7 164.8 39.1 238.6 80.3 73.8 41.3 138.9 96.2 192.9 161.8l-192.9 316-143-205.5q-8.6-11.7-19.8-20.9-11.2-9.2-24.4-15.3-13.8-5.6-28-7.1-14.3-2-29 0-14.3 2.5-27.5 8.1-13.2 6.2-24.4 15.8-11.2 9.2-19.4 21.4-8.1 12.2-12.7 25.9l-94.6 277.8-83.5-106.8q-8.6-11.2-20.3-19.9-11.2-8.1-25-13.2-13.2-5.1-27.5-6.6-14.2-1-28.4 1.5-14.3 2.6-27 9.2-12.7 6.1-23.4 15.8-10.7 9.6-18.9 21.3-7.6 12.2-11.7 26l-117 376q-2.5 9.6-3 19.8-0.6 10.2 1 19.9 1 10.1 4.6 19.3 3 9.7 7.6 18.3c10.2 17.3 24.4 32.1 42.2 41.2 17.8 9.7 37.7 13.8 57.5 12.2 20.4-1.5 39.2-9.1 55.5-20.8 15.8-12.2 28-29 34.6-47.9l58-185.7 79.4 101.3q8.6 11.2 19.8 19.3 11.7 8.7 24.4 13.8 13.3 5 27.5 6.6 14.3 1 28-1 13.8-2.6 27-8.7 12.7-6.1 23.4-15.3 10.7-9.1 18.8-20.8 7.7-11.7 12.2-24.9l90.6-264.6 116.5 167.4q7.2 10.7 17.3 19.3 9.7 8.7 21.4 14.3 11.7 6.1 24.4 8.6 12.8 3.1 26 2.5 13.2-.5 25.4-4zm498.7-731.7c0 13.3-2 26.5-6.1 39.2-3.6 13.2-9.7 25.5-16.8 36.6-7.6 10.7-16.8 20.9-27 29.6-10.1 8.6-21.8 15.2-34.1 20.3-12.2 5.6-25.4 8.7-38.6 10.2-13.3 1-27 .5-40.2-2.1-12.8-2.5-25.5-7.1-37.7-13.7-11.7-6.1-22.4-14.2-31.5-23.9-19.4-18.8-32.1-43.3-37.2-69.7-5.6-26.5-2.5-53.9 7.6-78.4 10.2-24.9 27.5-46.3 49.9-61.5 22.4-14.8 48.9-22.9 75.3-23.4 36.2 0 70.8 14.7 96.2 40.2q9.7 9.6 17.3 20.8 7.1 11.2 12.2 23.4 5.1 12.2 8.2 25.5 2.5 13.2 2.5 26.9z"
  />
</svg>
